<svg id="Layer_3" enable-background="new 0 0 64 64" height="512" viewBox="0 0 64 64" width="512" xmlns="http://www.w3.org/2000/svg"><circle cx="38" cy="30" fill="#f2a348" r="24"/><circle cx="38" cy="30" fill="#f7c77a" r="20"/><path d="m32 62h-26l-2-36h30z" fill="#7ec95f"/><path d="m32.444 54 1.112-20h-29.112l1.112 20z" fill="#a67c52"/><circle cx="19" cy="44" fill="#a1a1aa" r="6"/><ellipse cx="17.5" cy="44" fill="#d7d7e2" rx="4.5" ry="5.803"/><path d="m2 20h34v6h-34z" fill="#a67c52"/><path d="m2 20h31v6h-31z" fill="#c69c6d"/><path d="m40 14c-.772 0-1.468.3-2 .779-.532-.479-1.228-.779-2-.779-1.657 0-3 1.343-3 3s1.343 3 3 3c.772 0 1.468-.3 2-.779.532.479 1.228.779 2 .779 1.657 0 3-1.343 3-3s-1.343-3-3-3z" fill="#ed6863"/><path d="m4 16h30v4h-30z" fill="#a67c52"/><path d="m4 16h27v4h-27z" fill="#c69c6d"/><path d="m26 4h4v12h-4z" fill="#d7d7e2"/><g fill="#ed6863"><path d="m54 6c1.889-.63 3.37-2.111 4-4 .63 1.889 2.111 3.37 4 4-1.889.63-3.37 2.111-4 4-.63-1.889-2.111-3.37-4-4z"/><path d="m8 8c1.889-.63 3.37-2.111 4-4 .63 1.889 2.111 3.37 4 4-1.889.63-3.37 2.111-4 4-.63-1.889-2.111-3.37-4-4z"/><path d="m54 32c0-.772-.3-1.468-.779-2 .479-.532.779-1.228.779-2 0-1.657-1.343-3-3-3s-3 1.343-3 3c0 .772.3 1.468.779 2-.479.532-.779 1.228-.779 2 0 1.657 1.343 3 3 3s3-1.343 3-3z"/><path d="m40 40c-.772 0-1.468.3-2 .779-.532-.479-1.228-.779-2-.779-1.657 0-3 1.343-3 3s1.343 3 3 3c.772 0 1.468-.3 2-.779.532.479 1.228.779 2 .779 1.657 0 3-1.343 3-3s-1.343-3-3-3z"/></g><path d="m36 27h-34c-.553 0-1-.448-1-1v-6c0-.552.447-1 1-1h34c.553 0 1 .448 1 1v6c0 .552-.447 1-1 1zm-33-2h32v-4h-32z"/><path d="m34 21h-30c-.553 0-1-.448-1-1v-4c0-.552.447-1 1-1h30c.553 0 1 .448 1 1v4c0 .552-.447 1-1 1zm-29-2h28v-2h-28z"/><path d="m32 63h-26c-.53 0-.969-.415-.998-.944l-2-36c-.016-.274.083-.543.271-.743.19-.2.453-.313.727-.313h30c.274 0 .537.113.727.313.188.199.287.468.271.743l-2 36c-.029.529-.468.944-.998.944zm-25.054-2h24.107l1.89-34h-27.886z"/><path d="m5 33h28v2h-28z"/><path d="m6 53h26v2h-26z"/><path d="m30 17h-4c-.553 0-1-.448-1-1v-12c0-.552.447-1 1-1h4c.553 0 1 .448 1 1v12c0 .552-.447 1-1 1zm-3-2h2v-10h-2z"/><path d="m38 55c-2.115 0-4.218-.265-6.249-.788l.498-1.937c1.869.481 3.804.725 5.751.725 12.683 0 23-10.318 23-23s-10.317-23-23-23c-2.631 0-5.21.44-7.667 1.309l-.666-1.886c2.671-.944 5.475-1.423 8.333-1.423 13.785 0 25 11.215 25 25s-11.215 25-25 25z"/><path d="m38 51c-1.777 0-3.544-.223-5.249-.662l.498-1.937c1.543.398 3.142.599 4.751.599 10.477 0 19-8.523 19-19s-8.523-19-19-19c-.318 0-.637.008-.951.023l-.098-1.998c.348-.016.697-.025 1.049-.025 11.579 0 21 9.42 21 21s-9.421 21-21 21z"/><path d="m40 47c-.705 0-1.394-.19-2-.545-.606.355-1.295.545-2 .545-1.973 0-3.675-1.471-3.958-3.421l1.979-.288c.141.974.993 1.709 1.979 1.709.485 0 .957-.185 1.331-.521.379-.343.959-.343 1.338 0 .374.336.846.521 1.331.521 1.103 0 2-.897 2-2s-.897-2-2-2c-.485 0-.957.185-1.331.521-.379.343-.959.343-1.338 0-.374-.336-.846-.521-1.331-.521-.909 0-1.705.613-1.936 1.491l-1.934-.508c.462-1.756 2.053-2.983 3.87-2.983.705 0 1.394.19 2 .545.606-.355 1.295-.545 2-.545 2.206 0 4 1.794 4 4s-1.794 4-4 4z"/><path d="m40 21c-.705 0-1.394-.19-2-.545-.606.355-1.295.545-2 .545v-2c.485 0 .957-.185 1.331-.521.379-.343.959-.343 1.338 0 .374.336.846.521 1.331.521 1.103 0 2-.897 2-2s-.897-2-2-2c-.485 0-.957.185-1.331.521-.379.343-.959.343-1.338 0-.374-.336-.846-.521-1.331-.521-.806 0-1.529.479-1.844 1.222l-1.842-.78c.629-1.484 2.076-2.442 3.686-2.442.705 0 1.394.19 2 .545.606-.355 1.295-.545 2-.545 2.206 0 4 1.794 4 4s-1.794 4-4 4z"/><path d="m51 36c-2.206 0-4-1.794-4-4 0-.705.19-1.393.546-2-.356-.607-.546-1.295-.546-2 0-2.206 1.794-4 4-4s4 1.794 4 4c0 .705-.19 1.393-.546 2 .356.607.546 1.295.546 2 0 2.206-1.794 4-4 4zm0-10c-1.103 0-2 .897-2 2 0 .621.283 1.066.521 1.331.343.38.343.958 0 1.338-.238.265-.521.71-.521 1.331 0 1.103.897 2 2 2s2-.897 2-2c0-.621-.283-1.066-.521-1.331-.343-.38-.343-.958 0-1.338.238-.265.521-.71.521-1.331 0-1.103-.897-2-2-2z"/><path d="m45.172 19h5.657v2h-5.657z" transform="matrix(.707 -.707 .707 .707 -.083 39.799)"/><path d="m47 37.172h2v5.657h-2z" transform="matrix(.707 -.707 .707 .707 -14.225 45.657)"/><path d="m19 51c-3.859 0-7-3.14-7-7s3.141-7 7-7 7 3.14 7 7-3.141 7-7 7zm0-12c-2.757 0-5 2.243-5 5s2.243 5 5 5 5-2.243 5-5-2.243-5-5-5z"/><path d="m58 11c-.431 0-.812-.275-.948-.684-.528-1.582-1.787-2.841-3.368-3.368-.409-.136-.684-.517-.684-.948s.275-.812.684-.949c1.581-.527 2.84-1.786 3.368-3.368.136-.408.517-.683.948-.683s.812.275.948.684c.528 1.582 1.787 2.841 3.368 3.368.409.136.684.517.684.948s-.275.812-.684.949c-1.581.527-2.84 1.786-3.368 3.368-.136.408-.517.683-.948.683zm-1.804-5c.7.492 1.312 1.104 1.804 1.804.492-.7 1.104-1.312 1.804-1.804-.7-.492-1.312-1.104-1.804-1.804-.492.7-1.104 1.312-1.804 1.804z"/><path d="m12 13c-.431 0-.812-.275-.948-.684-.528-1.582-1.787-2.841-3.368-3.368-.409-.136-.684-.517-.684-.948s.275-.812.684-.949c1.581-.527 2.84-1.786 3.368-3.368.136-.408.517-.683.948-.683s.812.275.948.684c.528 1.582 1.787 2.841 3.368 3.368.409.136.684.517.684.948s-.275.812-.684.949c-1.581.527-2.84 1.786-3.368 3.368-.136.408-.517.683-.948.683zm-1.804-5c.7.492 1.312 1.104 1.804 1.804.492-.7 1.104-1.312 1.804-1.804-.7-.492-1.312-1.104-1.804-1.804-.492.7-1.104 1.312-1.804 1.804z"/></svg>